<svg width="2564" height="1439" viewBox="0 0 2564 1439" fill="none" xmlns="http://www.w3.org/2000/svg">
<g clip-path="url(#clip0_191_448)">
<rect width="2564" height="1439" fill="#F6F3F7"/>
<g filter="url(#filter0_if_191_448)">
<path d="M1280.94 693.264C1242.21 688.707 1128.08 650.097 1175.23 594.996C1200.52 565.435 1236.92 555.433 1273.92 555.433C1292.7 555.433 1311.52 555.816 1330.29 555.433C1343.01 555.173 1355.58 547.751 1367.09 542.884C1389.59 533.363 1409.77 520.575 1433.45 513.531C1458.07 506.206 1482.18 499.04 1505.88 489.283C1534.46 477.511 1565.13 486.539 1588.3 505.235C1600.52 515.097 1617.8 525.633 1615.95 543.522C1615.1 551.769 1605.43 559.132 1600.64 565.43C1593.96 574.206 1585.66 589.092 1582.45 599.782C1575.44 623.161 1571.27 648.773 1574.9 673.164C1577.23 688.824 1589.6 706.929 1587.02 723.043C1584.65 737.882 1569.06 743.907 1557.24 749.737C1535.15 760.638 1508.86 768.896 1484.18 770.795C1459.09 772.725 1433.72 771.752 1408.57 771.752C1396.17 771.752 1383.24 773.645 1371.77 768.348C1352.68 759.541 1333.3 754.983 1319.66 737.294C1313.82 729.723 1309.75 722.066 1302.96 715.279C1296.24 708.557 1294.01 703.775 1285.62 699.965C1279.5 697.181 1268.44 691.35 1261.8 691.35" stroke="#CC72E2" stroke-width="31" stroke-linecap="round"/>
<path d="M1208.2 633.92C1257.16 627.393 1302.94 617.832 1350.5 603.717C1375.87 596.186 1398.48 587.148 1425.16 583.723C1473.16 577.557 1521.1 571.192 1569.05 565.005C1576.32 564.066 1583.23 562.811 1590.11 561.282C1595 560.196 1583.05 562.917 1581.49 563.09C1577.19 563.568 1571.33 566.901 1567.24 568.833C1538.23 582.532 1505.94 589.625 1475.14 597.761C1413.23 614.115 1349.57 619.211 1286.26 628.603C1266 631.608 1242 632.076 1222.77 639.77C1217.16 642.015 1234.4 643.124 1240.32 644.343C1245.71 645.453 1251.01 645.406 1256.48 645.406C1275.36 645.406 1296.06 648.397 1313.91 641.152C1342.92 629.381 1374.06 622.224 1404.74 616.266C1425.42 612.249 1446.38 610.145 1467.27 607.545C1481.19 605.814 1495.67 601.377 1509.71 601.377C1518.34 601.377 1527.93 597.663 1536.51 599.569C1538.31 599.969 1540.31 602.37 1539.06 604.248C1534.56 610.988 1511.18 612.434 1504.6 613.714C1450.7 624.195 1398.29 629.923 1346.67 649.235C1330.48 655.29 1314.74 662.682 1298.6 668.804C1294.06 670.523 1289.91 671.668 1285.2 673.058C1265.51 678.868 1289.72 676.249 1296.9 676.142C1353.39 675.299 1418.58 685.526 1473.65 664.975C1484 661.114 1494.21 654.746 1503.86 649.235C1507.92 646.914 1511.75 643.331 1515.66 640.621C1520.12 637.533 1537.62 637.401 1521.94 636.26C1499.31 634.614 1477.53 639.663 1455.15 639.663C1445.61 639.663 1437.12 639.759 1428.03 641.578C1401.96 646.791 1382.23 660.733 1361.77 677.099C1354.59 682.847 1347.98 684.101 1340.29 687.947C1335.9 690.143 1349.44 691.928 1354.33 692.414C1380.18 694.983 1406.87 693.373 1432.81 693.264C1464.08 693.134 1488.66 686.081 1515.98 671.356C1533.82 661.737 1548.27 646.606 1564.9 635.09C1591.76 616.493 1540.05 611.843 1527.89 616.266C1518.69 619.611 1539.2 636.459 1542.78 641.578C1550.3 652.324 1554.69 661.407 1554.69 674.121C1554.69 684.711 1557.34 700.425 1547.03 707.09C1538.83 712.4 1531.49 713.751 1521.08 714.747C1516.98 715.14 1503.88 718.756 1500.03 715.811C1495.6 712.427 1509.12 691.781 1510.56 688.479C1514.36 679.757 1519.42 671.059 1522.04 661.891C1524.58 653.01 1525.16 663.396 1525.98 667.74C1527.36 675.049 1527.06 683.394 1530.66 690.074C1531.78 692.157 1531.87 680.693 1531.72 683.055C1531.59 685.185 1529.26 725.119 1523.21 720.703C1510.45 711.389 1505.83 692.051 1494.6 680.821C1491.78 678.001 1493.43 680.928 1493.43 685.182C1493.43 696.349 1493.43 707.515 1493.43 718.682C1493.43 732.538 1491.25 723.212 1489.71 714.854C1487.71 704.036 1487.23 692.996 1485.78 682.098C1482.99 661.23 1480.18 690.354 1479.08 697.306C1476.71 712.216 1475.13 727.849 1470.57 742.292C1467.2 752.971 1463.45 744.603 1459.83 737.294C1447.26 711.917 1442.79 681.924 1437.92 654.34C1437.51 652.024 1435.09 632.836 1434.51 639.025C1432.55 660.14 1434.09 681.96 1434.09 703.155C1434.09 704.617 1433.59 721.976 1432.92 721.235C1427.82 715.573 1425.44 703.691 1423.77 696.455C1423.46 695.116 1421.26 679.75 1420.8 688.585C1420.13 701.171 1421.51 713.878 1420.69 726.446C1420.16 734.581 1405.87 710.922 1405.16 709.643C1404.85 709.082 1394.62 691.501 1394.31 691.988C1393.11 693.923 1394.69 716.969 1392.19 715.385C1383.35 709.803 1377.56 700.118 1370.28 692.839C1364.97 687.532 1367 700.622 1367.19 703.474C1367.39 706.367 1374.21 720.686 1365.6 715.385C1356.65 709.881 1366.91 715.314 1370.92 721.554C1375.77 729.108 1361.72 723.628 1374 726.978C1382.44 729.28 1389.72 733.12 1397.72 736.23C1400.6 737.35 1414.7 738.652 1407.29 741.123" stroke="#CC72E2" stroke-width="31" stroke-linecap="round"/>
<path d="M1583.41 530.547C1583.41 548.035 1581.33 567.976 1572.88 583.191C1567.09 593.613 1566.18 606.054 1560.86 616.691C1555.01 628.402 1558.52 646.809 1558.52 659.87C1558.52 671.614 1558.05 682.988 1560.54 694.222C1561.85 700.126 1565.84 706.332 1566.18 712.408C1566.62 720.327 1558.98 721.707 1552.78 724.319C1537.97 730.555 1517.87 727.408 1501.94 730.594C1493.69 732.244 1482.87 730.909 1475.14 734.422C1471.73 735.975 1437.33 741.644 1439.19 745.377C1446.57 760.137 1500.43 752.608 1514.92 752.608C1517.31 752.608 1547.06 751.914 1533.21 749.843C1498.75 744.69 1464.91 748.78 1430.47 748.78C1421.47 748.78 1413.53 752.608 1404.31 752.608C1390.12 752.608 1370.59 745.014 1359.01 737.294C1346.2 728.754 1334.44 720.173 1323.91 709.643C1314.56 700.288 1296.4 695.56 1284.99 688.585C1270.8 679.914 1255.45 672.113 1240.74 664.55C1227.51 657.743 1215.56 648.047 1202.46 641.152C1193.14 636.247 1185.23 627.884 1185.23 617.649C1185.23 611.314 1187.52 606.101 1193.84 603.291C1204.27 598.657 1216.77 587.977 1228.41 587.977C1250.16 587.977 1271.45 578.405 1293.28 578.405C1307.86 578.405 1323.83 575.65 1337.31 570.748C1351.08 565.741 1367.65 567.169 1380.49 560.751C1389.11 556.441 1400.31 555.026 1409.63 552.03C1429.11 545.766 1444.66 534.554 1466.63 532.461C1473.01 531.854 1482.35 525.365 1487.69 521.932C1493.84 517.976 1499.42 517.618 1505.98 515.232C1519.07 510.472 1536.69 513.318 1550.44 513.318C1559.25 513.318 1573.41 522.758 1565.11 533.418C1558.1 542.436 1553.98 557.347 1540.33 557.347C1494.36 557.347 1448.38 557.347 1402.4 557.347C1385.83 557.347 1369.29 559.484 1353.37 564.26C1339.12 568.536 1321.8 572.082 1308.7 579.362C1286.96 591.441 1263.09 599.162 1241.38 611.374C1232.51 616.366 1201.55 619.802 1211.6 618.18C1278.18 607.442 1341.47 586.361 1404.74 563.516C1442.29 549.954 1481.24 538.791 1519.38 526.825C1540.92 520.07 1565.05 521 1586.17 513.318C1595.05 510.091 1582.57 517.854 1580.22 519.167C1567.87 526.06 1555.2 530.97 1542.57 537.141C1528.92 543.805 1518.36 546.324 1503.11 547.776C1433.35 554.42 1366.41 575.248 1299.02 593.72C1269.71 601.754 1235.4 608.41 1208.2 622.009C1200.81 625.703 1205.62 627.474 1208.2 633.92" stroke="#CC72E2" stroke-width="31" stroke-linecap="round"/>
</g>
<g filter="url(#filter1_if_191_448)">
<path d="M673.53 1186.01C656.933 1183.24 654.279 1175.91 643.953 1162.64C637.614 1154.49 632.348 1131.09 639.274 1122.44C649.148 1110.09 667.153 1118.85 678.517 1121.37C691.307 1124.21 696.738 1138.74 705.318 1147.32C721.82 1163.82 743.339 1170.03 759.876 1186.57L826.877 1253.57C829.684 1256.37 829.992 1260.36 832.62 1263.14C834.654 1265.29 838.912 1267.56 840.278 1269.95C842.726 1274.23 850.3 1279.87 854.529 1282.28C866.36 1289.04 873.77 1304.29 883.35 1313.87C888.063 1318.58 893.509 1325.26 896.75 1331.1C901.861 1340.3 913.446 1346.62 916.851 1356.83C922.205 1372.9 935.994 1381.76 935.994 1400.01C935.994 1414.42 932.333 1422.03 915.893 1422.03C899.189 1422.03 889.114 1420.43 873.672 1413.41C857.426 1406.03 840.837 1400.29 824.963 1392.36C817.52 1388.63 809.366 1381.93 802.948 1376.93C794.866 1370.65 787.807 1364.53 781.891 1355.98C770.687 1339.8 765.283 1317.86 752.219 1303.34C739.448 1289.15 734.378 1269.02 721.59 1255.48C712.126 1245.46 710.672 1226.48 700.957 1216.77C696.153 1211.96 691.974 1206.72 687.132 1201.88C683.269 1198.02 673.966 1194.77 673.731 1188.91C673.693 1187.94 673.624 1186.98 673.53 1186.01Z" fill="#CD73E3"/>
<path d="M677.56 1186.57C657.292 1184.31 655.063 1176.92 643.953 1162.64C637.614 1154.49 632.348 1131.09 639.274 1122.44C649.148 1110.09 667.153 1118.85 678.517 1121.37C691.307 1124.21 696.738 1138.74 705.318 1147.32C721.82 1163.82 743.339 1170.03 759.876 1186.57C782.047 1208.74 804.355 1231.04 826.877 1253.57C829.684 1256.37 829.992 1260.36 832.62 1263.14C834.654 1265.29 838.912 1267.56 840.278 1269.95C842.726 1274.23 850.3 1279.87 854.529 1282.28C866.36 1289.04 873.77 1304.29 883.35 1313.87C888.063 1318.58 893.509 1325.26 896.75 1331.1C901.861 1340.3 913.446 1346.62 916.851 1356.83C922.205 1372.9 935.994 1381.76 935.994 1400.01C935.994 1414.42 932.333 1422.03 915.893 1422.03C899.189 1422.03 889.114 1420.43 873.672 1413.41C857.426 1406.03 840.837 1400.29 824.963 1392.36C817.52 1388.63 809.366 1381.93 802.948 1376.93C794.866 1370.65 787.807 1364.53 781.891 1355.98C770.687 1339.8 765.283 1317.86 752.219 1303.34C739.448 1289.15 734.378 1269.02 721.59 1255.48C712.126 1245.46 710.672 1226.48 700.957 1216.77C696.153 1211.96 691.974 1206.72 687.132 1201.88C683.269 1198.02 673.966 1194.77 673.731 1188.91C673.245 1176.75 667.975 1164.26 665.968 1152.21C664.815 1145.3 655.263 1136.2 669.796 1145.41C681.689 1152.94 692.953 1157.27 701.595 1168.38C713.464 1183.64 721.776 1200.53 734.883 1215.28C752.086 1234.63 771.189 1252.66 791.462 1268.88C797.485 1273.7 800.408 1283.93 805.82 1289.94C816.112 1301.37 826.708 1312.85 836.449 1324.82C845.862 1336.39 858.195 1349 865.164 1361.83C868.276 1367.57 874.751 1376.12 880.478 1379.49C885.624 1382.51 889.521 1387.06 894.942 1389.91C899.048 1392.07 906.495 1397.03 909.619 1400.54C911.231 1402.36 905.968 1404.35 904.407 1404.69C899.965 1405.68 895.427 1402.95 891.964 1400.54C881.19 1393.06 866.362 1389.26 854.103 1384.59C843.638 1380.6 832.113 1378.33 821.134 1375.66C816.43 1374.51 802.495 1374.16 806.99 1372.36C810.258 1371.05 815.19 1371.8 818.795 1370.77C841.673 1364.23 865.339 1370.99 888.136 1372.26C889.753 1372.34 894.85 1376.03 895.687 1373.11C897.273 1367.55 887.176 1356.47 884.732 1352.69C877.946 1342.17 868.332 1329.8 857.932 1322.48C850.111 1316.98 844.338 1310.53 838.257 1303.23C831.951 1295.67 820.103 1282.2 831.557 1301C843.732 1320.99 853.347 1338.18 858.357 1361.41C859.277 1365.67 864.384 1379.35 859.421 1381.83" stroke="#CC72E2" stroke-width="31" stroke-linecap="round"/>
</g>
<g filter="url(#filter2_if_191_448)">
<path d="M2571.07 80C2558.04 99.3586 2542.93 115.528 2533.04 136.826C2517.52 170.263 2519.27 204.804 2514.37 241C2509.04 280.385 2514.37 313.5 2514.37 358.5C2521.09 390.867 2522.55 427.042 2531.07 458.98C2541.76 499.076 2545.83 538.659 2545.83 579.973C2545.83 611.881 2542.86 643.535 2542.86 675.316C2542.86 682.802 2548.41 693.099 2551.37 700C2553.78 705.631 2561.1 731 2568.87 712.5C2563.87 719.012 2585.1 727.801 2577.37 746.5" stroke="#CC72E2" stroke-width="40" stroke-linecap="round"/>
<path d="M2563.64 734.699C2566.07 712.853 2560.67 689.088 2560.67 666.408C2560.67 617.692 2560.67 568.976 2560.67 520.26C2560.67 500.35 2557.71 481.548 2557.71 461.537C2557.71 426.052 2560.67 390.914 2560.67 355.389C2560.67 324.941 2562.16 294.162 2562.16 264.088C2562.16 253.99 2563.64 243.962 2563.64 233.654C2563.64 223.999 2560.67 214.322 2560.67 204.375C2560.67 193.35 2560.67 182.326 2560.67 171.302C2560.67 164.362 2558.06 150.626 2561.42 144.579C2563.62 140.617 2562.89 134.776 2564.8 130.476C2565.69 128.472 2568.29 117.775 2566.28 126.022C2562.08 143.287 2554.79 160.266 2549.46 177.24C2544.36 193.452 2539.16 209.532 2533.21 225.406C2523.49 251.332 2526.53 280.149 2526.53 307.47C2526.53 337.052 2526.53 366.634 2526.53 396.215" stroke="#CC72E2" stroke-width="40" stroke-linecap="round"/>
</g>
<g filter="url(#filter3_df_191_448)">
<path d="M171 69C273.127 73.2827 256.66 0 256.66 0H-8V250C-8 250 46.3272 167.984 67.5 145.5C88.6728 123.016 68.8725 64.7173 171 69Z" fill="#CC72E2"/>
</g>
<g filter="url(#filter4_if_191_448)">
<path d="M2362.73 1341.5C2222.18 1338.44 2174.23 1439.5 2174.23 1439.5L2576.15 1439.5L2576.15 1161C2576.15 1161 2570.56 1182.89 2541.73 1208C2512.9 1233.11 2503.27 1344.56 2362.73 1341.5Z" fill="#CC72E2"/>
</g>
</g>
<defs>
<filter id="filter0_if_191_448" x="1141.5" y="461.48" width="497.091" height="333.101" filterUnits="userSpaceOnUse" color-interpolation-filters="sRGB">
<feFlood flood-opacity="0" result="BackgroundImageFix"/>
<feBlend mode="normal" in="SourceGraphic" in2="BackgroundImageFix" result="shape"/>
<feColorMatrix in="SourceAlpha" type="matrix" values="0 0 0 0 0 0 0 0 0 0 0 0 0 0 0 0 0 0 127 0" result="hardAlpha"/>
<feOffset dy="20"/>
<feGaussianBlur stdDeviation="2"/>
<feComposite in2="hardAlpha" operator="arithmetic" k2="-1" k3="1"/>
<feColorMatrix type="matrix" values="0 0 0 0 0 0 0 0 0 0 0 0 0 0 0 0 0 0 0.25 0"/>
<feBlend mode="normal" in2="shape" result="effect1_innerShadow_191_448"/>
<feGaussianBlur stdDeviation="3.5" result="effect2_foregroundBlur_191_448"/>
</filter>
<filter id="filter1_if_191_448" x="612.5" y="1092.51" width="346.994" height="353.015" filterUnits="userSpaceOnUse" color-interpolation-filters="sRGB">
<feFlood flood-opacity="0" result="BackgroundImageFix"/>
<feBlend mode="normal" in="SourceGraphic" in2="BackgroundImageFix" result="shape"/>
<feColorMatrix in="SourceAlpha" type="matrix" values="0 0 0 0 0 0 0 0 0 0 0 0 0 0 0 0 0 0 127 0" result="hardAlpha"/>
<feOffset dy="14"/>
<feGaussianBlur stdDeviation="2"/>
<feComposite in2="hardAlpha" operator="arithmetic" k2="-1" k3="1"/>
<feColorMatrix type="matrix" values="0 0 0 0 0 0 0 0 0 0 0 0 0 0 0 0 0 0 0.25 0"/>
<feBlend mode="normal" in2="shape" result="effect1_innerShadow_191_448"/>
<feGaussianBlur stdDeviation="4" result="effect2_foregroundBlur_191_448"/>
</filter>
<filter id="filter2_if_191_448" x="2485" y="52.998" width="121.082" height="720.507" filterUnits="userSpaceOnUse" color-interpolation-filters="sRGB">
<feFlood flood-opacity="0" result="BackgroundImageFix"/>
<feBlend mode="normal" in="SourceGraphic" in2="BackgroundImageFix" result="shape"/>
<feColorMatrix in="SourceAlpha" type="matrix" values="0 0 0 0 0 0 0 0 0 0 0 0 0 0 0 0 0 0 127 0" result="hardAlpha"/>
<feOffset dy="20"/>
<feGaussianBlur stdDeviation="2"/>
<feComposite in2="hardAlpha" operator="arithmetic" k2="-1" k3="1"/>
<feColorMatrix type="matrix" values="0 0 0 0 0 0 0 0 0 0 0 0 0 0 0 0 0 0 0.25 0"/>
<feBlend mode="normal" in2="shape" result="effect1_innerShadow_191_448"/>
<feGaussianBlur stdDeviation="3.5" result="effect2_foregroundBlur_191_448"/>
</filter>
<filter id="filter3_df_191_448" x="-15" y="-7" width="279.639" height="281" filterUnits="userSpaceOnUse" color-interpolation-filters="sRGB">
<feFlood flood-opacity="0" result="BackgroundImageFix"/>
<feColorMatrix in="SourceAlpha" type="matrix" values="0 0 0 0 0 0 0 0 0 0 0 0 0 0 0 0 0 0 127 0" result="hardAlpha"/>
<feOffset dy="20"/>
<feGaussianBlur stdDeviation="2"/>
<feComposite in2="hardAlpha" operator="out"/>
<feColorMatrix type="matrix" values="0 0 0 0 0.662745 0 0 0 0 0.337255 0 0 0 0 0.745098 0 0 0 1 0"/>
<feBlend mode="normal" in2="BackgroundImageFix" result="effect1_dropShadow_191_448"/>
<feBlend mode="normal" in="SourceGraphic" in2="effect1_dropShadow_191_448" result="shape"/>
<feGaussianBlur stdDeviation="3.5" result="effect2_foregroundBlur_191_448"/>
</filter>
<filter id="filter4_if_191_448" x="2165.23" y="1152" width="419.918" height="296.5" filterUnits="userSpaceOnUse" color-interpolation-filters="sRGB">
<feFlood flood-opacity="0" result="BackgroundImageFix"/>
<feBlend mode="normal" in="SourceGraphic" in2="BackgroundImageFix" result="shape"/>
<feColorMatrix in="SourceAlpha" type="matrix" values="0 0 0 0 0 0 0 0 0 0 0 0 0 0 0 0 0 0 127 0" result="hardAlpha"/>
<feOffset dy="20"/>
<feGaussianBlur stdDeviation="2"/>
<feComposite in2="hardAlpha" operator="arithmetic" k2="-1" k3="1"/>
<feColorMatrix type="matrix" values="0 0 0 0 0 0 0 0 0 0 0 0 0 0 0 0 0 0 0.25 0"/>
<feBlend mode="normal" in2="shape" result="effect1_innerShadow_191_448"/>
<feGaussianBlur stdDeviation="4.5" result="effect2_foregroundBlur_191_448"/>
</filter>
<clipPath id="clip0_191_448">
<rect width="2564" height="1439" fill="white"/>
</clipPath>
</defs>
</svg>
